<mxfile host="app.diagrams.net" agent="Mozilla/5.0 (Windows NT 10.0; Win64; x64) AppleWebKit/537.36 (KHTML, like Gecko) Chrome/139.0.0.0 Safari/537.36 Edg/139.0.0.0" version="28.1.0">
  <diagram name="第 1 页" id="4FDxckcdzepB1UXGRd6l">
    <mxGraphModel dx="1348" dy="748" grid="1" gridSize="10" guides="1" tooltips="1" connect="1" arrows="1" fold="1" page="1" pageScale="1" pageWidth="827" pageHeight="1169" math="0" shadow="0">
      <root>
        <mxCell id="0" />
        <mxCell id="1" parent="0" />
        <mxCell id="6_FeX9YhbCCSs8YIxbvB-1" value="" style="rounded=0;whiteSpace=wrap;html=1;" vertex="1" parent="1">
          <mxGeometry x="190" y="240" width="90" height="90" as="geometry" />
        </mxCell>
        <mxCell id="6_FeX9YhbCCSs8YIxbvB-5" value="" style="rounded=0;whiteSpace=wrap;html=1;" vertex="1" parent="1">
          <mxGeometry x="450" y="260" width="60" height="60" as="geometry" />
        </mxCell>
        <mxCell id="6_FeX9YhbCCSs8YIxbvB-6" value="" style="rounded=0;whiteSpace=wrap;html=1;" vertex="1" parent="1">
          <mxGeometry x="200" y="250" width="90" height="90" as="geometry" />
        </mxCell>
        <mxCell id="6_FeX9YhbCCSs8YIxbvB-7" value="" style="rounded=0;whiteSpace=wrap;html=1;" vertex="1" parent="1">
          <mxGeometry x="210" y="260" width="90" height="90" as="geometry" />
        </mxCell>
        <mxCell id="6_FeX9YhbCCSs8YIxbvB-8" value="" style="rounded=0;whiteSpace=wrap;html=1;" vertex="1" parent="1">
          <mxGeometry x="220" y="270" width="90" height="90" as="geometry" />
        </mxCell>
        <mxCell id="6_FeX9YhbCCSs8YIxbvB-9" value="" style="rounded=0;whiteSpace=wrap;html=1;" vertex="1" parent="1">
          <mxGeometry x="460" y="270" width="60" height="60" as="geometry" />
        </mxCell>
        <mxCell id="6_FeX9YhbCCSs8YIxbvB-10" value="" style="rounded=0;whiteSpace=wrap;html=1;" vertex="1" parent="1">
          <mxGeometry x="470" y="280" width="60" height="60" as="geometry" />
        </mxCell>
        <mxCell id="6_FeX9YhbCCSs8YIxbvB-11" value="" style="rounded=0;whiteSpace=wrap;html=1;" vertex="1" parent="1">
          <mxGeometry x="480" y="290" width="60" height="60" as="geometry" />
        </mxCell>
        <mxCell id="6_FeX9YhbCCSs8YIxbvB-12" value="" style="shape=flexArrow;endArrow=classic;html=1;rounded=0;" edge="1" parent="1">
          <mxGeometry width="50" height="50" relative="1" as="geometry">
            <mxPoint x="330" y="300" as="sourcePoint" />
            <mxPoint x="430" y="300" as="targetPoint" />
            <Array as="points">
              <mxPoint x="400" y="300" />
            </Array>
          </mxGeometry>
        </mxCell>
        <mxCell id="6_FeX9YhbCCSs8YIxbvB-13" value="&lt;font face=&quot;SimSun&quot; style=&quot;font-size: 18px;&quot;&gt;激活函数&lt;/font&gt;" style="text;html=1;align=center;verticalAlign=middle;resizable=0;points=[];autosize=1;strokeColor=none;fillColor=none;" vertex="1" parent="1">
          <mxGeometry x="320" y="260" width="100" height="40" as="geometry" />
        </mxCell>
        <mxCell id="6_FeX9YhbCCSs8YIxbvB-14" value="&lt;font face=&quot;SimSun&quot; style=&quot;font-size: 18px;&quot;&gt;卷积层&lt;/font&gt;" style="text;html=1;align=center;verticalAlign=middle;resizable=0;points=[];autosize=1;strokeColor=none;fillColor=none;" vertex="1" parent="1">
          <mxGeometry x="200" y="380" width="80" height="40" as="geometry" />
        </mxCell>
        <mxCell id="6_FeX9YhbCCSs8YIxbvB-15" value="&lt;font face=&quot;SimSun&quot; style=&quot;font-size: 18px;&quot;&gt;池化层&lt;/font&gt;" style="text;html=1;align=center;verticalAlign=middle;resizable=0;points=[];autosize=1;strokeColor=none;fillColor=none;" vertex="1" parent="1">
          <mxGeometry x="460" y="380" width="80" height="40" as="geometry" />
        </mxCell>
        <mxCell id="6_FeX9YhbCCSs8YIxbvB-16" value="" style="shape=flexArrow;endArrow=classic;html=1;rounded=0;" edge="1" parent="1">
          <mxGeometry width="50" height="50" relative="1" as="geometry">
            <mxPoint x="560" y="299" as="sourcePoint" />
            <mxPoint x="610" y="299.5" as="targetPoint" />
            <Array as="points" />
          </mxGeometry>
        </mxCell>
        <mxCell id="6_FeX9YhbCCSs8YIxbvB-17" value="" style="rounded=0;whiteSpace=wrap;html=1;" vertex="1" parent="1">
          <mxGeometry x="630" y="230" width="40" height="140" as="geometry" />
        </mxCell>
        <mxCell id="6_FeX9YhbCCSs8YIxbvB-18" value="&lt;font face=&quot;SimSun&quot; style=&quot;font-size: 18px;&quot;&gt;全连接层&lt;/font&gt;" style="text;html=1;align=center;verticalAlign=middle;resizable=0;points=[];autosize=1;strokeColor=none;fillColor=none;" vertex="1" parent="1">
          <mxGeometry x="600" y="380" width="100" height="40" as="geometry" />
        </mxCell>
        <mxCell id="6_FeX9YhbCCSs8YIxbvB-19" value="" style="ellipse;whiteSpace=wrap;html=1;aspect=fixed;" vertex="1" parent="1">
          <mxGeometry x="640" y="240" width="20" height="20" as="geometry" />
        </mxCell>
        <mxCell id="6_FeX9YhbCCSs8YIxbvB-20" value="" style="ellipse;whiteSpace=wrap;html=1;aspect=fixed;" vertex="1" parent="1">
          <mxGeometry x="640" y="270" width="20" height="20" as="geometry" />
        </mxCell>
        <mxCell id="6_FeX9YhbCCSs8YIxbvB-21" value="" style="ellipse;whiteSpace=wrap;html=1;aspect=fixed;" vertex="1" parent="1">
          <mxGeometry x="640" y="340" width="20" height="20" as="geometry" />
        </mxCell>
        <mxCell id="6_FeX9YhbCCSs8YIxbvB-22" value="" style="ellipse;whiteSpace=wrap;html=1;aspect=fixed;" vertex="1" parent="1">
          <mxGeometry x="640" y="314.5" width="20" height="20" as="geometry" />
        </mxCell>
        <mxCell id="6_FeX9YhbCCSs8YIxbvB-23" value="&lt;font face=&quot;SimSun&quot; style=&quot;font-size: 18px;&quot;&gt;…&lt;/font&gt;" style="text;html=1;align=center;verticalAlign=middle;resizable=0;points=[];autosize=1;strokeColor=none;fillColor=none;flipV=1;textDirection=vertical-lr;" vertex="1" parent="1">
          <mxGeometry x="630" y="300" width="40" height="40" as="geometry" />
        </mxCell>
        <mxCell id="6_FeX9YhbCCSs8YIxbvB-24" value="" style="shape=flexArrow;endArrow=classic;html=1;rounded=0;" edge="1" parent="1">
          <mxGeometry width="50" height="50" relative="1" as="geometry">
            <mxPoint x="690" y="300.08" as="sourcePoint" />
            <mxPoint x="740" y="300.58" as="targetPoint" />
            <Array as="points" />
          </mxGeometry>
        </mxCell>
        <mxCell id="6_FeX9YhbCCSs8YIxbvB-25" value="" style="shape=flexArrow;endArrow=classic;html=1;rounded=0;" edge="1" parent="1">
          <mxGeometry width="50" height="50" relative="1" as="geometry">
            <mxPoint x="120" y="299.17" as="sourcePoint" />
            <mxPoint x="170" y="299.67" as="targetPoint" />
            <Array as="points" />
          </mxGeometry>
        </mxCell>
        <mxCell id="6_FeX9YhbCCSs8YIxbvB-27" value="&lt;font face=&quot;SimSun&quot; style=&quot;font-size: 18px;&quot;&gt;输入&lt;/font&gt;" style="text;html=1;align=center;verticalAlign=middle;resizable=0;points=[];autosize=1;strokeColor=none;fillColor=none;" vertex="1" parent="1">
          <mxGeometry x="60" y="280" width="60" height="40" as="geometry" />
        </mxCell>
        <mxCell id="6_FeX9YhbCCSs8YIxbvB-28" value="&lt;font face=&quot;SimSun&quot; style=&quot;font-size: 18px;&quot;&gt;输出&lt;/font&gt;" style="text;html=1;align=center;verticalAlign=middle;resizable=0;points=[];autosize=1;strokeColor=none;fillColor=none;" vertex="1" parent="1">
          <mxGeometry x="740" y="280" width="60" height="40" as="geometry" />
        </mxCell>
      </root>
    </mxGraphModel>
  </diagram>
</mxfile>
